<?xml version="1.0" encoding="UTF-8" standalone="no"?>
<!DOCTYPE svg PUBLIC "-//W3C//DTD SVG 1.1//EN" "http://www.w3.org/Graphics/SVG/1.1/DTD/svg11.dtd">
<svg width="100%" height="100%" viewBox="0 0 139 20" version="1.1" xmlns="http://www.w3.org/2000/svg" xmlns:xlink="http://www.w3.org/1999/xlink" xml:space="preserve" xmlns:serif="http://www.serif.com/" style="fill-rule:evenodd;clip-rule:evenodd;stroke-linejoin:round;stroke-miterlimit:2;">
    <g>
        <rect x="-1" y="0" width="66" height="20" style="fill:rgb(85,85,85);fill-rule:nonzero;"/>
        <g transform="matrix(0.843844,0,0,1,10.1501,0)">
            <rect x="65" y="0" width="87" height="20" style="fill:rgb(15,137,245);fill-rule:nonzero;"/>
        </g>
        <g transform="matrix(0.910465,0,0,1,0,0)">
            <rect x="0" y="0" width="152" height="20" style="fill:url(#_Linear1);fill-rule:nonzero;"/>
        </g>
        <path d="M8.539,9.188L8.566,9.833C8.992,9.332 9.567,9.081 10.29,9.081C11.103,9.081 11.656,9.393 11.95,10.016C12.143,9.736 12.394,9.511 12.702,9.339C13.013,9.167 13.38,9.081 13.803,9.081C15.078,9.081 15.726,9.756 15.747,11.106L15.747,15L14.754,15L14.754,11.165C14.754,10.75 14.659,10.44 14.469,10.236C14.279,10.028 13.96,9.924 13.513,9.924C13.144,9.924 12.838,10.035 12.594,10.257C12.351,10.476 12.209,10.771 12.17,11.144L12.17,15L11.171,15L11.171,11.192C11.171,10.347 10.757,9.924 9.93,9.924C9.279,9.924 8.833,10.202 8.593,10.757L8.593,15L7.599,15L7.599,9.188L8.539,9.188ZM19.663,15.107C18.875,15.107 18.234,14.85 17.74,14.334C17.246,13.815 16.999,13.122 16.999,12.255L16.999,12.073C16.999,11.496 17.108,10.982 17.326,10.531C17.548,10.077 17.856,9.722 18.25,9.468C18.648,9.21 19.077,9.081 19.539,9.081C20.295,9.081 20.882,9.33 21.301,9.828C21.72,10.325 21.929,11.038 21.929,11.965L21.929,12.379L17.992,12.379C18.007,12.952 18.173,13.416 18.492,13.77C18.814,14.121 19.222,14.296 19.716,14.296C20.067,14.296 20.365,14.225 20.608,14.082C20.852,13.938 21.065,13.749 21.247,13.512L21.854,13.985C21.367,14.733 20.637,15.107 19.663,15.107ZM19.539,9.897C19.138,9.897 18.802,10.044 18.529,10.338C18.257,10.628 18.089,11.036 18.025,11.563L20.936,11.563L20.936,11.487C20.907,10.982 20.771,10.592 20.528,10.316C20.284,10.037 19.955,9.897 19.539,9.897ZM24.019,9.188L24.046,9.833C24.472,9.332 25.046,9.081 25.77,9.081C26.583,9.081 27.136,9.393 27.429,10.016C27.623,9.736 27.873,9.511 28.181,9.339C28.493,9.167 28.86,9.081 29.282,9.081C30.557,9.081 31.205,9.756 31.227,11.106L31.227,15L30.233,15L30.233,11.165C30.233,10.75 30.138,10.44 29.948,10.236C29.759,10.028 29.44,9.924 28.992,9.924C28.624,9.924 28.317,10.035 28.074,10.257C27.83,10.476 27.689,10.771 27.65,11.144L27.65,15L26.651,15L26.651,11.192C26.651,10.347 26.237,9.924 25.41,9.924C24.758,9.924 24.312,10.202 24.072,10.757L24.072,15L23.079,15L23.079,9.188L24.019,9.188ZM37.651,12.159C37.651,13.047 37.446,13.761 37.038,14.302C36.63,14.839 36.082,15.107 35.395,15.107C34.661,15.107 34.093,14.848 33.692,14.329L33.644,15L32.731,15L32.731,6.75L33.724,6.75L33.724,9.828C34.125,9.33 34.679,9.081 35.384,9.081C36.089,9.081 36.643,9.348 37.044,9.881C37.448,10.415 37.651,11.145 37.651,12.073L37.651,12.159ZM36.657,12.046C36.657,11.369 36.526,10.846 36.265,10.477C36.003,10.109 35.627,9.924 35.137,9.924C34.482,9.924 34.011,10.229 33.724,10.837L33.724,13.351C34.029,13.96 34.503,14.264 35.148,14.264C35.624,14.264 35.994,14.08 36.259,13.711C36.524,13.342 36.657,12.787 36.657,12.046ZM41.319,15.107C40.531,15.107 39.89,14.85 39.396,14.334C38.902,13.815 38.655,13.122 38.655,12.255L38.655,12.073C38.655,11.496 38.764,10.982 38.983,10.531C39.205,10.077 39.513,9.722 39.906,9.468C40.304,9.21 40.734,9.081 41.195,9.081C41.951,9.081 42.538,9.33 42.957,9.828C43.376,10.325 43.586,11.038 43.586,11.965L43.586,12.379L39.649,12.379C39.663,12.952 39.829,13.416 40.148,13.77C40.47,14.121 40.879,14.296 41.373,14.296C41.724,14.296 42.021,14.225 42.264,14.082C42.508,13.938 42.721,13.749 42.903,13.512L43.51,13.985C43.023,14.733 42.293,15.107 41.319,15.107ZM41.195,9.897C40.794,9.897 40.458,10.044 40.186,10.338C39.914,10.628 39.745,11.036 39.681,11.563L42.592,11.563L42.592,11.487C42.563,10.982 42.427,10.592 42.184,10.316C41.94,10.037 41.611,9.897 41.195,9.897ZM47.549,10.08C47.399,10.055 47.236,10.043 47.061,10.043C46.409,10.043 45.967,10.32 45.734,10.875L45.734,15L44.74,15L44.74,9.188L45.707,9.188L45.723,9.86C46.049,9.341 46.511,9.081 47.109,9.081C47.302,9.081 47.449,9.106 47.549,9.156L47.549,10.08ZM50.933,12.041C50.933,11.471 51.044,10.959 51.266,10.504C51.492,10.05 51.803,9.699 52.201,9.452C52.602,9.205 53.058,9.081 53.57,9.081C54.362,9.081 55.001,9.355 55.488,9.903C55.978,10.451 56.224,11.179 56.224,12.089L56.224,12.159C56.224,12.724 56.115,13.233 55.896,13.684C55.681,14.132 55.371,14.481 54.967,14.731C54.566,14.982 54.104,15.107 53.581,15.107C52.793,15.107 52.154,14.834 51.664,14.286C51.177,13.738 50.933,13.013 50.933,12.11L50.933,12.041ZM51.932,12.159C51.932,12.803 52.081,13.321 52.378,13.711C52.679,14.101 53.08,14.296 53.581,14.296C54.086,14.296 54.487,14.099 54.784,13.706C55.082,13.308 55.23,12.753 55.23,12.041C55.23,11.403 55.078,10.887 54.774,10.494C54.473,10.096 54.072,9.897 53.57,9.897C53.08,9.897 52.684,10.093 52.383,10.483C52.083,10.873 51.932,11.432 51.932,12.159ZM57.959,15L57.959,9.957L57.04,9.957L57.04,9.188L57.959,9.188L57.959,8.592C57.959,7.969 58.125,7.488 58.458,7.147C58.791,6.807 59.262,6.637 59.871,6.637C60.1,6.637 60.327,6.668 60.553,6.729L60.499,7.534C60.331,7.502 60.152,7.486 59.962,7.486C59.64,7.486 59.391,7.581 59.215,7.771C59.04,7.957 58.952,8.225 58.952,8.576L58.952,9.188L60.193,9.188L60.193,9.957L58.952,9.957L58.952,15L57.959,15Z" style="fill:rgb(1,1,1);fill-opacity:0.3;fill-rule:nonzero;"/>
        <path d="M7.842,8.188L7.869,8.833C8.295,8.332 8.869,8.081 9.593,8.081C10.406,8.081 10.959,8.393 11.252,9.016C11.446,8.736 11.697,8.511 12.004,8.339C12.316,8.167 12.683,8.081 13.105,8.081C14.38,8.081 15.028,8.756 15.05,10.106L15.05,14L14.056,14L14.056,10.165C14.056,9.75 13.961,9.44 13.772,9.236C13.582,9.028 13.263,8.924 12.815,8.924C12.447,8.924 12.141,9.035 11.897,9.257C11.653,9.476 11.512,9.771 11.473,10.144L11.473,14L10.474,14L10.474,10.192C10.474,9.347 10.06,8.924 9.233,8.924C8.581,8.924 8.135,9.202 7.896,9.757L7.896,14L6.902,14L6.902,8.188L7.842,8.188ZM18.965,14.107C18.178,14.107 17.537,13.85 17.043,13.334C16.548,12.815 16.301,12.122 16.301,11.255L16.301,11.073C16.301,10.496 16.411,9.982 16.629,9.531C16.851,9.077 17.159,8.722 17.553,8.468C17.95,8.21 18.38,8.081 18.842,8.081C19.597,8.081 20.185,8.33 20.604,8.828C21.023,9.325 21.232,10.038 21.232,10.965L21.232,11.379L17.295,11.379C17.309,11.952 17.476,12.416 17.794,12.77C18.117,13.121 18.525,13.296 19.019,13.296C19.37,13.296 19.667,13.225 19.911,13.082C20.154,12.938 20.367,12.749 20.55,12.512L21.157,12.985C20.67,13.733 19.939,14.107 18.965,14.107ZM18.842,8.897C18.441,8.897 18.104,9.044 17.832,9.338C17.56,9.628 17.392,10.036 17.327,10.563L20.238,10.563L20.238,10.487C20.21,9.982 20.074,9.592 19.83,9.316C19.587,9.037 19.257,8.897 18.842,8.897ZM23.321,8.188L23.348,8.833C23.774,8.332 24.349,8.081 25.072,8.081C25.885,8.081 26.438,8.393 26.732,9.016C26.925,8.736 27.176,8.511 27.484,8.339C27.795,8.167 28.162,8.081 28.585,8.081C29.86,8.081 30.508,8.756 30.529,10.106L30.529,14L29.536,14L29.536,10.165C29.536,9.75 29.441,9.44 29.251,9.236C29.061,9.028 28.743,8.924 28.295,8.924C27.926,8.924 27.62,9.035 27.377,9.257C27.133,9.476 26.991,9.771 26.952,10.144L26.952,14L25.953,14L25.953,10.192C25.953,9.347 25.54,8.924 24.712,8.924C24.061,8.924 23.615,9.202 23.375,9.757L23.375,14L22.381,14L22.381,8.188L23.321,8.188ZM36.953,11.159C36.953,12.047 36.749,12.761 36.341,13.302C35.933,13.839 35.385,14.107 34.697,14.107C33.963,14.107 33.396,13.848 32.995,13.329L32.946,14L32.033,14L32.033,5.75L33.027,5.75L33.027,8.828C33.428,8.33 33.981,8.081 34.687,8.081C35.392,8.081 35.945,8.348 36.346,8.881C36.751,9.415 36.953,10.145 36.953,11.073L36.953,11.159ZM35.96,11.046C35.96,10.369 35.829,9.846 35.567,9.478C35.306,9.109 34.93,8.924 34.44,8.924C33.784,8.924 33.313,9.229 33.027,9.837L33.027,12.351C33.331,12.96 33.806,13.264 34.45,13.264C34.926,13.264 35.297,13.08 35.562,12.711C35.827,12.342 35.96,11.787 35.96,11.046ZM40.622,14.107C39.834,14.107 39.193,13.85 38.699,13.334C38.205,12.815 37.958,12.122 37.958,11.255L37.958,11.073C37.958,10.496 38.067,9.982 38.285,9.531C38.507,9.077 38.815,8.722 39.209,8.468C39.606,8.21 40.036,8.081 40.498,8.081C41.254,8.081 41.841,8.33 42.26,8.828C42.679,9.325 42.888,10.038 42.888,10.965L42.888,11.379L38.951,11.379C38.966,11.952 39.132,12.416 39.451,12.77C39.773,13.121 40.181,13.296 40.675,13.296C41.026,13.296 41.323,13.225 41.567,13.082C41.81,12.938 42.023,12.749 42.206,12.512L42.813,12.985C42.326,13.733 41.596,14.107 40.622,14.107ZM40.498,8.897C40.097,8.897 39.76,9.044 39.488,9.338C39.216,9.628 39.048,10.036 38.983,10.563L41.895,10.563L41.895,10.487C41.866,9.982 41.73,9.592 41.486,9.316C41.243,9.037 40.913,8.897 40.498,8.897ZM46.852,9.08C46.702,9.055 46.539,9.042 46.363,9.042C45.712,9.042 45.269,9.32 45.037,9.875L45.037,14L44.043,14L44.043,8.188L45.01,8.188L45.026,8.86C45.352,8.341 45.814,8.081 46.412,8.081C46.605,8.081 46.752,8.106 46.852,8.156L46.852,9.08ZM50.236,11.041C50.236,10.471 50.347,9.959 50.569,9.504C50.794,9.05 51.106,8.699 51.503,8.452C51.905,8.205 52.361,8.081 52.873,8.081C53.664,8.081 54.304,8.355 54.791,8.903C55.281,9.451 55.526,10.179 55.526,11.089L55.526,11.159C55.526,11.724 55.417,12.233 55.199,12.684C54.984,13.132 54.674,13.481 54.27,13.731C53.868,13.982 53.407,14.107 52.884,14.107C52.096,14.107 51.457,13.834 50.966,13.286C50.479,12.738 50.236,12.013 50.236,11.11L50.236,11.041ZM51.235,11.159C51.235,11.803 51.384,12.321 51.681,12.711C51.981,13.101 52.383,13.296 52.884,13.296C53.389,13.296 53.79,13.099 54.087,12.706C54.384,12.308 54.533,11.753 54.533,11.041C54.533,10.403 54.381,9.888 54.076,9.494C53.775,9.096 53.374,8.897 52.873,8.897C52.383,8.897 51.987,9.093 51.686,9.483C51.385,9.873 51.235,10.432 51.235,11.159ZM57.261,14L57.261,8.957L56.343,8.957L56.343,8.188L57.261,8.188L57.261,7.592C57.261,6.969 57.428,6.488 57.761,6.147C58.094,5.807 58.565,5.637 59.173,5.637C59.403,5.637 59.63,5.668 59.856,5.729L59.802,6.534C59.634,6.502 59.454,6.486 59.265,6.486C58.942,6.486 58.694,6.581 58.518,6.771C58.343,6.957 58.255,7.225 58.255,7.576L58.255,8.188L59.496,8.188L59.496,8.957L58.255,8.957L58.255,14L57.261,14Z" style="fill:white;fill-rule:nonzero;"/>
        <g>
            <g transform="matrix(0.0238155,0,0,0.0238155,70.5425,2.88702)">
                <path d="M518.547,517.161L514.847,518.461C509.347,520.161 501.047,525.961 497.547,530.261C495.947,532.361 493.347,536.461 491.847,539.461C489.347,544.361 489.047,545.861 489.047,555.461C489.047,565.561 489.147,566.261 492.747,573.461C494.747,577.561 496.147,581.161 495.747,581.461C493.947,583.061 393.447,622.461 388.747,623.461C385.447,624.161 375.147,624.461 361.247,624.161L339.047,623.861L285.847,602.461L232.547,581.161L234.547,578.661C235.547,577.361 237.447,573.661 238.547,570.561C246.347,549.861 236.947,527.561 217.047,519.261L211.547,516.961L211.547,410.561L268.847,433.461C315.147,451.961 327.747,456.561 334.947,457.861C347.047,459.961 383.047,459.961 394.947,457.861C401.747,456.661 414.647,451.861 456.347,435.261C485.347,423.661 511.147,413.261 513.847,412.261L518.547,410.361L518.547,517.161ZM539.547,529.561C553.047,535.361 559.847,551.361 554.847,565.961C552.547,572.761 544.647,580.461 537.647,582.861C523.947,587.361 508.747,581.561 502.547,569.261C498.947,562.361 498.247,556.261 500.047,549.261C504.547,531.261 522.647,522.261 539.547,529.561ZM173.747,584.361L153.847,584.361C128.047,584.361 124.047,583.061 119.047,572.961L116.547,567.961L116.547,439.461C116.547,316.461 116.647,310.661 118.447,306.861C121.047,301.261 125.647,297.261 131.247,295.761C135.147,294.761 180.647,294.561 367.047,294.661L598.047,294.861L602.047,296.961C606.647,299.461 608.547,301.461 611.147,306.361C612.947,309.761 613.047,315.061 613.347,436.361C613.547,528.761 613.347,564.261 612.547,568.161C611.147,574.461 606.847,579.861 601.047,582.461C597.647,584.061 594.247,584.361 576.847,584.361C565.647,584.361 556.547,584.061 556.547,583.761C556.547,583.461 557.947,581.561 559.547,579.461C571.247,564.961 569.347,540.861 555.447,527.361L551.547,523.561L551.547,389.561L548.747,384.261C544.647,376.461 539.347,373.061 530.547,372.561L523.647,372.161L457.847,398.461L392.047,424.861L337.047,424.861L271.747,398.561C212.547,374.761 206.047,372.361 200.747,372.361C193.747,372.361 187.947,374.861 184.147,379.461C178.347,386.261 178.547,383.761 178.547,456.361L178.547,523.361L175.547,526.061C160.347,539.561 158.347,564.161 171.147,580.861L173.747,584.361ZM655.247,163.061C661.747,167.361 772.047,298.961 776.347,307.761C781.847,318.761 783.847,328.861 783.247,341.761C782.747,352.661 782.447,354.061 758.347,435.561L733.847,518.261L876.047,518.861L880.047,521.561C882.247,523.061 885.147,525.961 886.547,528.061C888.947,531.561 889.047,532.461 889.347,549.761C889.647,564.461 889.347,568.461 888.047,571.961C886.047,577.161 880.947,581.861 875.847,583.361C873.147,584.161 838.647,584.361 759.447,584.161L646.847,583.861L642.747,580.961C640.147,579.161 637.647,576.261 636.047,573.061C633.647,568.261 633.547,567.061 633.547,552.461C633.547,534.761 634.347,530.761 638.847,525.661C644.247,519.461 648.047,518.361 664.247,518.361C676.847,518.361 678.447,518.161 678.947,516.561C735.247,325.261 732.347,336.661 727.447,329.961C723.447,324.661 672.347,264.261 672.047,264.561C671.847,264.761 669.847,271.161 667.547,278.861C662.447,295.861 660.247,298.861 655.547,295.061C653.947,293.861 562.147,184.661 557.847,178.961C555.147,175.461 554.947,172.161 557.147,170.261C559.247,168.561 638.747,159.261 645.947,159.861C649.147,160.161 652.447,161.361 655.247,163.061ZM213.547,529.561C223.247,533.661 229.547,542.661 230.347,553.461C231.147,565.261 225.947,575.061 215.747,581.161C211.547,583.561 210.047,583.861 202.047,583.861C194.747,583.861 192.247,583.461 189.047,581.661C175.247,574.261 169.447,557.961 175.647,544.361C182.547,529.361 198.547,523.061 213.547,529.561ZM425.247,67.961C429.947,70.661 433.547,76.961 433.547,82.361C433.547,86.761 430.047,93.861 426.747,96.261C425.247,97.261 422.347,98.661 420.347,99.261C416.747,100.461 416.647,100.561 408.147,121.961C403.447,133.761 399.547,143.561 399.547,143.861C399.547,144.061 410.047,144.361 422.847,144.561L446.247,144.861L450.447,147.661C453.247,149.561 455.347,152.061 456.647,154.861C458.547,159.061 458.547,161.761 458.347,218.761L458.047,278.161L455.047,281.961C448.547,289.861 454.847,289.361 365.347,289.361C311.547,289.361 284.747,289.061 282.847,288.261C279.347,286.961 274.947,282.861 272.747,278.861C271.247,276.161 271.047,269.861 270.747,219.861C270.447,160.161 270.647,157.661 275.247,151.461C280.047,145.161 283.547,144.361 306.347,144.361C317.447,144.361 326.547,144.161 326.547,143.861C326.547,143.561 324.347,139.961 321.647,135.961C316.847,128.861 316.547,128.661 312.047,128.161C303.647,127.161 296.547,119.261 296.547,110.761C296.547,98.361 310.047,89.661 321.147,94.961C329.147,98.761 333.347,108.461 330.347,116.161L328.947,119.861L336.947,132.061L345.047,144.261L364.147,144.361L383.147,144.361L392.947,119.761L402.847,95.161L400.647,90.961C395.347,80.161 400.047,69.861 412.547,65.061C415.047,64.061 420.847,65.361 425.247,67.961ZM311.347,238.661C308.947,241.461 306.547,244.361 306.247,245.061C304.447,248.061 327.647,260.361 342.547,264.361C355.347,267.861 375.447,267.661 388.747,264.061C401.947,260.461 424.047,248.961 424.047,245.661C424.047,245.061 421.847,241.961 419.247,238.961L414.447,233.361L409.947,236.461C403.047,241.161 389.847,246.961 381.847,248.761C362.347,253.061 338.647,248.661 322.347,237.661C319.947,236.061 317.547,234.361 316.947,234.061C316.247,233.661 313.847,235.661 311.347,238.661ZM312.847,179.361C304.847,181.161 298.647,190.161 299.847,197.961C301.247,206.561 308.147,212.361 317.047,212.361C322.747,212.361 326.647,210.461 330.047,205.961C339.547,193.461 328.147,175.961 312.847,179.361ZM409.947,179.261C398.547,181.961 393.047,194.261 398.647,204.361C404.647,215.061 421.447,214.961 427.547,204.161C432.747,194.861 428.247,182.661 418.547,179.961C414.047,178.661 413.047,178.561 409.947,179.261ZM683.647,142.761C685.047,143.761 703.447,165.261 709.347,172.761C712.647,177.061 712.347,182.361 708.447,186.861C702.747,193.261 696.647,195.061 691.347,191.561C687.747,189.261 665.647,162.661 663.947,158.661C661.847,153.861 663.147,149.861 668.247,145.361C673.747,140.561 679.047,139.661 683.647,142.761Z" style="fill:rgb(14,91,159);fill-rule:nonzero;"/>
            </g>
            <g transform="matrix(0.0238155,0,0,0.0238155,69.8604,2.04601)">
                <path d="M518.547,517.161L514.847,518.461C509.347,520.161 501.047,525.961 497.547,530.261C495.947,532.361 493.347,536.461 491.847,539.461C489.347,544.361 489.047,545.861 489.047,555.461C489.047,565.561 489.147,566.261 492.747,573.461C494.747,577.561 496.147,581.161 495.747,581.461C493.947,583.061 393.447,622.461 388.747,623.461C385.447,624.161 375.147,624.461 361.247,624.161L339.047,623.861L285.847,602.461L232.547,581.161L234.547,578.661C235.547,577.361 237.447,573.661 238.547,570.561C246.347,549.861 236.947,527.561 217.047,519.261L211.547,516.961L211.547,410.561L268.847,433.461C315.147,451.961 327.747,456.561 334.947,457.861C347.047,459.961 383.047,459.961 394.947,457.861C401.747,456.661 414.647,451.861 456.347,435.261C485.347,423.661 511.147,413.261 513.847,412.261L518.547,410.361L518.547,517.161ZM539.547,529.561C553.047,535.361 559.847,551.361 554.847,565.961C552.547,572.761 544.647,580.461 537.647,582.861C523.947,587.361 508.747,581.561 502.547,569.261C498.947,562.361 498.247,556.261 500.047,549.261C504.547,531.261 522.647,522.261 539.547,529.561ZM173.747,584.361L153.847,584.361C128.047,584.361 124.047,583.061 119.047,572.961L116.547,567.961L116.547,439.461C116.547,316.461 116.647,310.661 118.447,306.861C121.047,301.261 125.647,297.261 131.247,295.761C135.147,294.761 180.647,294.561 367.047,294.661L598.047,294.861L602.047,296.961C606.647,299.461 608.547,301.461 611.147,306.361C612.947,309.761 613.047,315.061 613.347,436.361C613.547,528.761 613.347,564.261 612.547,568.161C611.147,574.461 606.847,579.861 601.047,582.461C597.647,584.061 594.247,584.361 576.847,584.361C565.647,584.361 556.547,584.061 556.547,583.761C556.547,583.461 557.947,581.561 559.547,579.461C571.247,564.961 569.347,540.861 555.447,527.361L551.547,523.561L551.547,389.561L548.747,384.261C544.647,376.461 539.347,373.061 530.547,372.561L523.647,372.161L457.847,398.461L392.047,424.861L337.047,424.861L271.747,398.561C212.547,374.761 206.047,372.361 200.747,372.361C193.747,372.361 187.947,374.861 184.147,379.461C178.347,386.261 178.547,383.761 178.547,456.361L178.547,523.361L175.547,526.061C160.347,539.561 158.347,564.161 171.147,580.861L173.747,584.361ZM655.247,163.061C661.747,167.361 772.047,298.961 776.347,307.761C781.847,318.761 783.847,328.861 783.247,341.761C782.747,352.661 782.447,354.061 758.347,435.561L733.847,518.261L876.047,518.861L880.047,521.561C882.247,523.061 885.147,525.961 886.547,528.061C888.947,531.561 889.047,532.461 889.347,549.761C889.647,564.461 889.347,568.461 888.047,571.961C886.047,577.161 880.947,581.861 875.847,583.361C873.147,584.161 838.647,584.361 759.447,584.161L646.847,583.861L642.747,580.961C640.147,579.161 637.647,576.261 636.047,573.061C633.647,568.261 633.547,567.061 633.547,552.461C633.547,534.761 634.347,530.761 638.847,525.661C644.247,519.461 648.047,518.361 664.247,518.361C676.847,518.361 678.447,518.161 678.947,516.561C735.247,325.261 732.347,336.661 727.447,329.961C723.447,324.661 672.347,264.261 672.047,264.561C671.847,264.761 669.847,271.161 667.547,278.861C662.447,295.861 660.247,298.861 655.547,295.061C653.947,293.861 562.147,184.661 557.847,178.961C555.147,175.461 554.947,172.161 557.147,170.261C559.247,168.561 638.747,159.261 645.947,159.861C649.147,160.161 652.447,161.361 655.247,163.061ZM213.547,529.561C223.247,533.661 229.547,542.661 230.347,553.461C231.147,565.261 225.947,575.061 215.747,581.161C211.547,583.561 210.047,583.861 202.047,583.861C194.747,583.861 192.247,583.461 189.047,581.661C175.247,574.261 169.447,557.961 175.647,544.361C182.547,529.361 198.547,523.061 213.547,529.561ZM425.247,67.961C429.947,70.661 433.547,76.961 433.547,82.361C433.547,86.761 430.047,93.861 426.747,96.261C425.247,97.261 422.347,98.661 420.347,99.261C416.747,100.461 416.647,100.561 408.147,121.961C403.447,133.761 399.547,143.561 399.547,143.861C399.547,144.061 410.047,144.361 422.847,144.561L446.247,144.861L450.447,147.661C453.247,149.561 455.347,152.061 456.647,154.861C458.547,159.061 458.547,161.761 458.347,218.761L458.047,278.161L455.047,281.961C448.547,289.861 454.847,289.361 365.347,289.361C311.547,289.361 284.747,289.061 282.847,288.261C279.347,286.961 274.947,282.861 272.747,278.861C271.247,276.161 271.047,269.861 270.747,219.861C270.447,160.161 270.647,157.661 275.247,151.461C280.047,145.161 283.547,144.361 306.347,144.361C317.447,144.361 326.547,144.161 326.547,143.861C326.547,143.561 324.347,139.961 321.647,135.961C316.847,128.861 316.547,128.661 312.047,128.161C303.647,127.161 296.547,119.261 296.547,110.761C296.547,98.361 310.047,89.661 321.147,94.961C329.147,98.761 333.347,108.461 330.347,116.161L328.947,119.861L336.947,132.061L345.047,144.261L364.147,144.361L383.147,144.361L392.947,119.761L402.847,95.161L400.647,90.961C395.347,80.161 400.047,69.861 412.547,65.061C415.047,64.061 420.847,65.361 425.247,67.961ZM311.347,238.661C308.947,241.461 306.547,244.361 306.247,245.061C304.447,248.061 327.647,260.361 342.547,264.361C355.347,267.861 375.447,267.661 388.747,264.061C401.947,260.461 424.047,248.961 424.047,245.661C424.047,245.061 421.847,241.961 419.247,238.961L414.447,233.361L409.947,236.461C403.047,241.161 389.847,246.961 381.847,248.761C362.347,253.061 338.647,248.661 322.347,237.661C319.947,236.061 317.547,234.361 316.947,234.061C316.247,233.661 313.847,235.661 311.347,238.661ZM312.847,179.361C304.847,181.161 298.647,190.161 299.847,197.961C301.247,206.561 308.147,212.361 317.047,212.361C322.747,212.361 326.647,210.461 330.047,205.961C339.547,193.461 328.147,175.961 312.847,179.361ZM409.947,179.261C398.547,181.961 393.047,194.261 398.647,204.361C404.647,215.061 421.447,214.961 427.547,204.161C432.747,194.861 428.247,182.661 418.547,179.961C414.047,178.661 413.047,178.561 409.947,179.261ZM683.647,142.761C685.047,143.761 703.447,165.261 709.347,172.761C712.647,177.061 712.347,182.361 708.447,186.861C702.747,193.261 696.647,195.061 691.347,191.561C687.747,189.261 665.647,162.661 663.947,158.661C661.847,153.861 663.147,149.861 668.247,145.361C673.747,140.561 679.047,139.661 683.647,142.761Z" style="fill:white;fill-rule:nonzero;"/>
            </g>
        </g>
        <g transform="matrix(1,0,0,1,-3,0)">
            <g transform="matrix(1,0,0,1,30.7935,4.30338)">
                <path d="M70.12,10.757L70.12,4.211L71.343,4.211L71.343,5.277L71.424,5.277C71.56,4.916 71.783,4.634 72.093,4.431C72.403,4.228 72.774,4.126 73.205,4.126C73.643,4.126 74.01,4.228 74.307,4.433C74.604,4.638 74.823,4.919 74.965,5.277L75.033,5.277C75.19,4.927 75.438,4.648 75.779,4.439C76.12,4.231 76.526,4.126 76.998,4.126C77.592,4.126 78.077,4.312 78.453,4.684C78.83,5.057 79.018,5.618 79.018,6.368L79.018,10.757L77.744,10.757L77.744,6.487C77.744,6.044 77.623,5.723 77.381,5.524C77.14,5.325 76.852,5.226 76.516,5.226C76.102,5.226 75.779,5.353 75.549,5.607C75.319,5.861 75.204,6.187 75.204,6.585L75.204,10.757L73.934,10.757L73.934,6.406C73.934,6.051 73.823,5.765 73.602,5.55C73.38,5.334 73.092,5.226 72.737,5.226C72.495,5.226 72.273,5.289 72.07,5.415C71.867,5.542 71.703,5.717 71.58,5.942C71.456,6.166 71.394,6.426 71.394,6.721L71.394,10.757L70.12,10.757Z" style="fill:rgb(58,58,58);fill-rule:nonzero;"/>
                <rect x="80.722" y="2.03" width="1.274" height="8.727" style="fill:rgb(58,58,58);fill-rule:nonzero;"/>
                <path d="M83.812,10.757L83.812,2.03L85.086,2.03L85.086,5.273L85.163,5.273C85.237,5.136 85.343,4.978 85.482,4.8C85.622,4.621 85.815,4.464 86.062,4.329C86.309,4.194 86.636,4.126 87.042,4.126C87.57,4.126 88.042,4.26 88.457,4.527C88.872,4.794 89.198,5.179 89.435,5.682C89.672,6.184 89.791,6.79 89.791,7.497C89.791,8.204 89.673,8.81 89.437,9.314C89.201,9.819 88.877,10.206 88.465,10.478C88.053,10.749 87.583,10.885 87.055,10.885C86.657,10.885 86.332,10.818 86.081,10.684C85.83,10.551 85.633,10.395 85.491,10.216C85.349,10.037 85.239,9.878 85.163,9.738L85.056,9.738L85.056,10.757L83.812,10.757ZM85.06,7.484C85.06,7.944 85.127,8.348 85.261,8.694C85.394,9.041 85.587,9.312 85.84,9.506C86.093,9.701 86.403,9.798 86.769,9.798C87.15,9.798 87.468,9.697 87.724,9.493C87.98,9.29 88.173,9.014 88.306,8.665C88.438,8.315 88.504,7.922 88.504,7.484C88.504,7.052 88.439,6.665 88.31,6.321C88.181,5.977 87.987,5.706 87.73,5.507C87.473,5.308 87.153,5.209 86.769,5.209C86.4,5.209 86.088,5.304 85.834,5.494C85.58,5.684 85.387,5.95 85.256,6.291C85.126,6.632 85.06,7.03 85.06,7.484Z" style="fill:rgb(58,58,58);fill-rule:nonzero;"/>
                <path d="M96.587,4.211L94.214,10.757L92.85,10.757L90.472,4.211L91.84,4.211L93.498,9.248L93.566,9.248L95.22,4.211L96.587,4.211Z" style="fill:rgb(58,58,58);fill-rule:nonzero;"/>
                <path d="M99.059,6.871L99.059,10.757L97.785,10.757L97.785,4.211L99.008,4.211L99.008,5.277L99.089,5.277C99.239,4.93 99.476,4.652 99.798,4.442C100.121,4.231 100.528,4.126 101.019,4.126C101.465,4.126 101.856,4.219 102.191,4.405C102.526,4.591 102.786,4.868 102.971,5.234C103.156,5.601 103.248,6.054 103.248,6.594L103.248,10.757L101.974,10.757L101.974,6.747C101.974,6.273 101.85,5.901 101.603,5.633C101.356,5.364 101.016,5.23 100.585,5.23C100.289,5.23 100.027,5.294 99.798,5.422C99.57,5.55 99.389,5.736 99.257,5.982C99.125,6.228 99.059,6.524 99.059,6.871Z" style="fill:rgb(58,58,58);fill-rule:nonzero;"/>
            </g>
            <g transform="matrix(1,0,0,1,30.0161,3.63566)">
                <path d="M70.12,10.757L70.12,4.211L71.343,4.211L71.343,5.277L71.424,5.277C71.56,4.916 71.783,4.634 72.093,4.431C72.403,4.228 72.774,4.126 73.205,4.126C73.643,4.126 74.01,4.228 74.307,4.433C74.604,4.638 74.823,4.919 74.965,5.277L75.033,5.277C75.19,4.927 75.438,4.648 75.779,4.439C76.12,4.231 76.526,4.126 76.998,4.126C77.592,4.126 78.077,4.312 78.453,4.684C78.83,5.057 79.018,5.618 79.018,6.368L79.018,10.757L77.744,10.757L77.744,6.487C77.744,6.044 77.623,5.723 77.381,5.524C77.14,5.325 76.852,5.226 76.516,5.226C76.102,5.226 75.779,5.353 75.549,5.607C75.319,5.861 75.204,6.187 75.204,6.585L75.204,10.757L73.934,10.757L73.934,6.406C73.934,6.051 73.823,5.765 73.602,5.55C73.38,5.334 73.092,5.226 72.737,5.226C72.495,5.226 72.273,5.289 72.07,5.415C71.867,5.542 71.703,5.717 71.58,5.942C71.456,6.166 71.394,6.426 71.394,6.721L71.394,10.757L70.12,10.757Z" style="fill:white;fill-rule:nonzero;"/>
                <rect x="80.722" y="2.03" width="1.274" height="8.727" style="fill:white;fill-rule:nonzero;"/>
                <path d="M83.812,10.757L83.812,2.03L85.086,2.03L85.086,5.273L85.163,5.273C85.237,5.136 85.343,4.978 85.482,4.8C85.622,4.621 85.815,4.464 86.062,4.329C86.309,4.194 86.636,4.126 87.042,4.126C87.57,4.126 88.042,4.26 88.457,4.527C88.872,4.794 89.198,5.179 89.435,5.682C89.672,6.184 89.791,6.79 89.791,7.497C89.791,8.204 89.673,8.81 89.437,9.314C89.201,9.819 88.877,10.206 88.465,10.478C88.053,10.749 87.583,10.885 87.055,10.885C86.657,10.885 86.332,10.818 86.081,10.684C85.83,10.551 85.633,10.395 85.491,10.216C85.349,10.037 85.239,9.878 85.163,9.738L85.056,9.738L85.056,10.757L83.812,10.757ZM85.06,7.484C85.06,7.944 85.127,8.348 85.261,8.694C85.394,9.041 85.587,9.312 85.84,9.506C86.093,9.701 86.403,9.798 86.769,9.798C87.15,9.798 87.468,9.697 87.724,9.493C87.98,9.29 88.173,9.014 88.306,8.665C88.438,8.315 88.504,7.922 88.504,7.484C88.504,7.052 88.439,6.665 88.31,6.321C88.181,5.977 87.987,5.706 87.73,5.507C87.473,5.308 87.153,5.209 86.769,5.209C86.4,5.209 86.088,5.304 85.834,5.494C85.58,5.684 85.387,5.95 85.256,6.291C85.126,6.632 85.06,7.03 85.06,7.484Z" style="fill:white;fill-rule:nonzero;"/>
                <path d="M96.587,4.211L94.214,10.757L92.85,10.757L90.472,4.211L91.84,4.211L93.498,9.248L93.566,9.248L95.22,4.211L96.587,4.211Z" style="fill:white;fill-rule:nonzero;"/>
                <path d="M99.059,6.871L99.059,10.757L97.785,10.757L97.785,4.211L99.008,4.211L99.008,5.277L99.089,5.277C99.239,4.93 99.476,4.652 99.798,4.442C100.121,4.231 100.528,4.126 101.019,4.126C101.465,4.126 101.856,4.219 102.191,4.405C102.526,4.591 102.786,4.868 102.971,5.234C103.156,5.601 103.248,6.054 103.248,6.594L103.248,10.757L101.974,10.757L101.974,6.747C101.974,6.273 101.85,5.901 101.603,5.633C101.356,5.364 101.016,5.23 100.585,5.23C100.289,5.23 100.027,5.294 99.798,5.422C99.57,5.55 99.389,5.736 99.257,5.982C99.125,6.228 99.059,6.524 99.059,6.871Z" style="fill:white;fill-rule:nonzero;"/>
            </g>
        </g>
    </g>
    <defs>
        <linearGradient id="_Linear1" x1="0" y1="0" x2="1" y2="0" gradientUnits="userSpaceOnUse" gradientTransform="matrix(1.22465e-15,20,-20,1.22465e-15,55,0)"><stop offset="0" style="stop-color:rgb(187,187,187);stop-opacity:0.1"/><stop offset="1" style="stop-color:black;stop-opacity:0.1"/></linearGradient>
    </defs>
</svg>
