<?xml version="1.0" encoding="UTF-8" standalone="no"?>
<!DOCTYPE svg PUBLIC "-//W3C//DTD SVG 1.1//EN" "http://www.w3.org/Graphics/SVG/1.1/DTD/svg11.dtd">
<svg width="169" height="20" viewBox="0 0 169 20" version="1.1" xmlns="http://www.w3.org/2000/svg" xmlns:xlink="http://www.w3.org/1999/xlink" xml:space="preserve" xmlns:serif="http://www.serif.com/" style="fill-rule:evenodd;clip-rule:evenodd;stroke-linejoin:round;stroke-miterlimit:2;">
    <g transform="matrix(1,0,0,1,12.5,0)">
        <g transform="matrix(0.988508,0,0,1,-12.5003,-0.0043164)">
            <rect x="0" y="0" width="71" height="20" style="fill:rgb(85,85,85);"/>
        </g>
        <g transform="matrix(1.3541,0,0,1,-38.4527,0.01772)">
            <rect x="71" y="0" width="73" height="20" style="fill:rgb(0,135,255);"/>
        </g>
    </g>
    <g transform="matrix(1,0,0,1,12.5,0)">
        <g transform="matrix(1,0,0,1,-16,0)">
            <g transform="matrix(0.1,0,0,0.1,36.5,15)">
                <text x="-302.312px" y="0px" style="font-family:'Verdana', sans-serif;font-size:110px;fill:rgb(1,1,1);fill-opacity:0.3;">member of</text>
            </g>
            <g transform="matrix(0.1,0,0,0.1,36.5,14)">
                <text x="-302.312px" y="0px" style="font-family:'Verdana', sans-serif;font-size:110px;fill:white;">member of</text>
            </g>
        </g>
        <g transform="matrix(1,0,0,1,11,0)">
            <g transform="matrix(0.1,0,0,0.1,106.5,15)">
                <text x="-317.432px" y="0px" style="font-family:'Verdana', sans-serif;font-size:110px;fill:rgb(1,1,1);fill-opacity:0.3;">Communit<tspan x="252.334px " y="0px ">y</tspan></text>
            </g>
            <g transform="matrix(0.1,0,0,0.1,106.5,14)">
                <text x="-317.432px" y="0px" style="font-family:'Verdana', sans-serif;font-size:110px;fill:white;">Communit<tspan x="252.334px " y="0px ">y</tspan></text>
            </g>
        </g>
    </g>
    <g transform="matrix(0.0179254,0,0,0.0179254,76.1631,1.63856)">
        <path d="M518.264,702.845L513.918,704.372C507.456,706.369 497.705,713.183 493.593,718.235C491.713,720.702 488.659,725.519 486.897,729.043C483.96,734.8 483.607,736.562 483.607,747.841C483.607,759.706 483.725,760.529 487.954,768.987C490.304,773.804 491.948,778.033 491.478,778.386C489.364,780.266 371.295,826.553 365.773,827.728C361.896,828.551 349.795,828.903 333.465,828.551L307.384,828.198L244.884,803.057L182.266,778.033L184.616,775.096C185.791,773.569 188.023,769.222 189.315,765.58C198.479,741.262 187.435,715.063 164.056,705.312L157.595,702.61L157.595,577.609L224.912,604.513C279.306,626.247 294.109,631.651 302.568,633.178C316.783,635.645 359.076,635.645 373.057,633.178C381.046,631.768 396.201,626.129 445.191,606.627C479.26,592.999 509.571,580.781 512.743,579.607L518.264,577.374L518.264,702.845ZM542.936,717.413C558.796,724.227 566.784,743.024 560.91,760.176C558.208,768.165 548.927,777.211 540.703,780.031C524.608,785.317 506.751,778.503 499.467,764.053C495.238,755.947 494.416,748.78 496.53,740.557C501.817,719.41 523.081,708.837 542.936,717.413ZM113.187,781.793L89.808,781.793C59.498,781.793 54.798,780.266 48.924,768.4L45.987,762.526L45.987,611.562C45.987,467.059 46.105,460.245 48.219,455.781C51.274,449.202 56.678,444.502 63.257,442.74C67.839,441.565 121.293,441.33 340.279,441.448L611.662,441.683L616.362,444.15C621.766,447.087 623.998,449.437 627.053,455.193C629.167,459.188 629.285,465.414 629.637,607.92C629.872,716.473 629.637,758.179 628.697,762.761C627.053,770.162 622.001,776.506 615.187,779.561C611.193,781.44 607.198,781.793 586.756,781.793C573.598,781.793 562.907,781.44 562.907,781.088C562.907,780.736 564.552,778.503 566.432,776.036C580.177,759.001 577.945,730.688 561.615,714.828L557.033,710.364L557.033,552.938L553.744,546.712C548.927,537.548 542.701,533.554 532.362,532.966L524.256,532.496L446.953,563.394L369.65,594.409L305.035,594.409L228.319,563.511C158.77,535.551 151.133,532.731 144.907,532.731C136.683,532.731 129.869,535.668 125.405,541.072C118.591,549.061 118.826,546.124 118.826,631.416L118.826,710.129L115.301,713.301C97.444,729.161 95.095,758.061 110.132,777.681L113.187,781.793ZM678.862,286.842C686.498,291.893 816.081,446.5 821.133,456.838C827.594,469.761 829.944,481.627 829.239,496.782C828.652,509.587 828.299,511.232 799.986,606.98L771.203,704.137L938.262,704.842L942.961,708.014C945.546,709.776 948.953,713.183 950.598,715.651C953.417,719.762 953.535,720.82 953.887,741.144C954.24,758.414 953.887,763.113 952.36,767.225C950.01,773.334 944.019,778.856 938.027,780.618C934.855,781.558 894.324,781.793 801.278,781.558L668.994,781.205L664.177,777.798C661.122,775.684 658.185,772.277 656.306,768.517C653.486,762.878 653.369,761.468 653.369,744.316C653.369,723.522 654.308,718.823 659.595,712.831C665.939,705.547 670.403,704.255 689.435,704.255C704.238,704.255 706.118,704.02 706.705,702.14C772.848,477.397 769.441,490.79 763.684,482.919C758.985,476.692 698.952,405.733 698.599,406.086C698.364,406.321 696.014,413.84 693.312,422.886C687.321,442.858 684.736,446.382 679.215,441.918C677.335,440.508 569.486,312.218 564.435,305.521C561.263,301.409 561.028,297.532 563.612,295.3C566.079,293.303 659.478,282.377 667.936,283.082C671.696,283.435 675.573,284.844 678.862,286.842ZM159.945,717.413C171.34,722.23 178.742,732.803 179.682,745.491C180.621,759.354 174.512,770.867 162.529,778.033C157.595,780.853 155.833,781.205 146.434,781.205C137.858,781.205 134.921,780.736 131.162,778.621C114.949,769.927 108.135,750.778 115.419,734.8C123.525,717.178 142.322,709.776 159.945,717.413ZM408.654,175.116C414.175,178.288 418.405,185.69 418.405,192.034C418.405,197.203 414.293,205.544 410.416,208.364C408.654,209.539 405.247,211.183 402.897,211.888C398.668,213.298 398.55,213.415 388.564,238.557C383.043,252.419 378.461,263.933 378.461,264.285C378.461,264.52 390.797,264.873 405.834,265.107L433.325,265.46L438.259,268.749C441.549,270.982 444.016,273.919 445.543,277.208C447.775,282.142 447.775,285.314 447.54,352.279L447.188,422.063L443.663,426.528C436.027,435.809 443.428,435.221 338.282,435.221C275.077,435.221 243.592,434.869 241.36,433.929C237.248,432.402 232.078,427.585 229.494,422.886C227.732,419.714 227.497,412.312 227.144,353.571C226.792,283.435 227.027,280.498 232.431,273.214C238.07,265.812 242.182,264.873 268.968,264.873C282.008,264.873 292.699,264.638 292.699,264.285C292.699,263.933 290.115,259.703 286.943,255.004C281.303,246.663 280.951,246.428 275.664,245.84C265.796,244.666 257.455,235.385 257.455,225.399C257.455,210.831 273.315,200.61 286.355,206.836C295.754,211.301 300.688,222.697 297.163,231.743L295.519,236.089L304.917,250.422L314.433,264.755L336.872,264.873L359.194,264.873L370.707,235.972L382.338,207.071L379.753,202.137C373.527,189.449 379.048,177.349 393.734,171.709C396.671,170.535 403.485,172.062 408.654,175.116ZM712.227,262.993C713.872,264.168 735.488,289.426 742.42,298.237C746.297,303.289 745.944,309.516 741.362,314.802C734.666,322.321 727.5,324.436 721.273,320.324C717.044,317.622 691.08,286.372 689.083,281.672C686.616,276.033 688.143,271.334 694.135,266.047C700.596,260.408 706.823,259.351 712.227,262.993Z" style="fill:rgb(4,89,165);fill-rule:nonzero;"/>
    </g>
    <g transform="matrix(0.0179254,0,0,0.0179254,75.8532,0.905872)">
        <path d="M518.264,702.845L513.918,704.372C507.456,706.369 497.705,713.183 493.593,718.235C491.713,720.702 488.659,725.519 486.897,729.043C483.96,734.8 483.607,736.562 483.607,747.841C483.607,759.706 483.725,760.529 487.954,768.987C490.304,773.804 491.948,778.033 491.478,778.386C489.364,780.266 371.295,826.553 365.773,827.728C361.896,828.551 349.795,828.903 333.465,828.551L307.384,828.198L244.884,803.057L182.266,778.033L184.616,775.096C185.791,773.569 188.023,769.222 189.315,765.58C198.479,741.262 187.435,715.063 164.056,705.312L157.595,702.61L157.595,577.609L224.912,604.513C279.306,626.247 294.109,631.651 302.568,633.178C316.783,635.645 359.076,635.645 373.057,633.178C381.046,631.768 396.201,626.129 445.191,606.627C479.26,592.999 509.571,580.781 512.743,579.607L518.264,577.374L518.264,702.845ZM542.936,717.413C558.796,724.227 566.784,743.024 560.91,760.176C558.208,768.165 548.927,777.211 540.703,780.031C524.608,785.317 506.751,778.503 499.467,764.053C495.238,755.947 494.416,748.78 496.53,740.557C501.817,719.41 523.081,708.837 542.936,717.413ZM113.187,781.793L89.808,781.793C59.498,781.793 54.798,780.266 48.924,768.4L45.987,762.526L45.987,611.562C45.987,467.059 46.105,460.245 48.219,455.781C51.274,449.202 56.678,444.502 63.257,442.74C67.839,441.565 121.293,441.33 340.279,441.448L611.662,441.683L616.362,444.15C621.766,447.087 623.998,449.437 627.053,455.193C629.167,459.188 629.285,465.414 629.637,607.92C629.872,716.473 629.637,758.179 628.697,762.761C627.053,770.162 622.001,776.506 615.187,779.561C611.193,781.44 607.198,781.793 586.756,781.793C573.598,781.793 562.907,781.44 562.907,781.088C562.907,780.736 564.552,778.503 566.432,776.036C580.177,759.001 577.945,730.688 561.615,714.828L557.033,710.364L557.033,552.938L553.744,546.712C548.927,537.548 542.701,533.554 532.362,532.966L524.256,532.496L446.953,563.394L369.65,594.409L305.035,594.409L228.319,563.511C158.77,535.551 151.133,532.731 144.907,532.731C136.683,532.731 129.869,535.668 125.405,541.072C118.591,549.061 118.826,546.124 118.826,631.416L118.826,710.129L115.301,713.301C97.444,729.161 95.095,758.061 110.132,777.681L113.187,781.793ZM678.862,286.842C686.498,291.893 816.081,446.5 821.133,456.838C827.594,469.761 829.944,481.627 829.239,496.782C828.652,509.587 828.299,511.232 799.986,606.98L771.203,704.137L938.262,704.842L942.961,708.014C945.546,709.776 948.953,713.183 950.598,715.651C953.417,719.762 953.535,720.82 953.887,741.144C954.24,758.414 953.887,763.113 952.36,767.225C950.01,773.334 944.019,778.856 938.027,780.618C934.855,781.558 894.324,781.793 801.278,781.558L668.994,781.205L664.177,777.798C661.122,775.684 658.185,772.277 656.306,768.517C653.486,762.878 653.369,761.468 653.369,744.316C653.369,723.522 654.308,718.823 659.595,712.831C665.939,705.547 670.403,704.255 689.435,704.255C704.238,704.255 706.118,704.02 706.705,702.14C772.848,477.397 769.441,490.79 763.684,482.919C758.985,476.692 698.952,405.733 698.599,406.086C698.364,406.321 696.014,413.84 693.312,422.886C687.321,442.858 684.736,446.382 679.215,441.918C677.335,440.508 569.486,312.218 564.435,305.521C561.263,301.409 561.028,297.532 563.612,295.3C566.079,293.303 659.478,282.377 667.936,283.082C671.696,283.435 675.573,284.844 678.862,286.842ZM159.945,717.413C171.34,722.23 178.742,732.803 179.682,745.491C180.621,759.354 174.512,770.867 162.529,778.033C157.595,780.853 155.833,781.205 146.434,781.205C137.858,781.205 134.921,780.736 131.162,778.621C114.949,769.927 108.135,750.778 115.419,734.8C123.525,717.178 142.322,709.776 159.945,717.413ZM408.654,175.116C414.175,178.288 418.405,185.69 418.405,192.034C418.405,197.203 414.293,205.544 410.416,208.364C408.654,209.539 405.247,211.183 402.897,211.888C398.668,213.298 398.55,213.415 388.564,238.557C383.043,252.419 378.461,263.933 378.461,264.285C378.461,264.52 390.797,264.873 405.834,265.107L433.325,265.46L438.259,268.749C441.549,270.982 444.016,273.919 445.543,277.208C447.775,282.142 447.775,285.314 447.54,352.279L447.188,422.063L443.663,426.528C436.027,435.809 443.428,435.221 338.282,435.221C275.077,435.221 243.592,434.869 241.36,433.929C237.248,432.402 232.078,427.585 229.494,422.886C227.732,419.714 227.497,412.312 227.144,353.571C226.792,283.435 227.027,280.498 232.431,273.214C238.07,265.812 242.182,264.873 268.968,264.873C282.008,264.873 292.699,264.638 292.699,264.285C292.699,263.933 290.115,259.703 286.943,255.004C281.303,246.663 280.951,246.428 275.664,245.84C265.796,244.666 257.455,235.385 257.455,225.399C257.455,210.831 273.315,200.61 286.355,206.836C295.754,211.301 300.688,222.697 297.163,231.743L295.519,236.089L304.917,250.422L314.433,264.755L336.872,264.873L359.194,264.873L370.707,235.972L382.338,207.071L379.753,202.137C373.527,189.449 379.048,177.349 393.734,171.709C396.671,170.535 403.485,172.062 408.654,175.116ZM712.227,262.993C713.872,264.168 735.488,289.426 742.42,298.237C746.297,303.289 745.944,309.516 741.362,314.802C734.666,322.321 727.5,324.436 721.273,320.324C717.044,317.622 691.08,286.372 689.083,281.672C686.616,276.033 688.143,271.334 694.135,266.047C700.596,260.408 706.823,259.351 712.227,262.993Z" style="fill:url(#_Linear1);fill-rule:nonzero;"/>
    </g>
    <defs>
        <linearGradient id="_Linear1" x1="0" y1="0" x2="1" y2="0" gradientUnits="userSpaceOnUse" gradientTransform="matrix(254.156,0,0,254.156,51.7759,3926.29)"><stop offset="0" style="stop-color:white;stop-opacity:1"/><stop offset="1" style="stop-color:white;stop-opacity:1"/></linearGradient>
    </defs>
</svg>
