<?xml version="1.0" encoding="UTF-8" standalone="no"?>
<!DOCTYPE svg PUBLIC "-//W3C//DTD SVG 1.1//EN" "http://www.w3.org/Graphics/SVG/1.1/DTD/svg11.dtd">
<svg width="152" height="20" viewBox="0 0 152 20" version="1.1" xmlns="http://www.w3.org/2000/svg" xmlns:xlink="http://www.w3.org/1999/xlink" xml:space="preserve" xmlns:serif="http://www.serif.com/" style="fill-rule:evenodd;clip-rule:evenodd;stroke-linejoin:round;stroke-miterlimit:2;">
    <g>
        <rect x="-1" y="0" width="66" height="20" style="fill:rgb(85,85,85);fill-rule:nonzero;"/>
        <rect x="65" y="0" width="87" height="20" style="fill:rgb(0,135,255);fill-rule:nonzero;"/>
        <rect x="0" y="0" width="152" height="20" style="fill:url(#_Linear1);fill-rule:nonzero;"/>
        <path d="M8.539,9.188L8.566,9.833C8.992,9.332 9.567,9.081 10.29,9.081C11.103,9.081 11.656,9.393 11.95,10.016C12.143,9.736 12.394,9.511 12.702,9.339C13.013,9.167 13.38,9.081 13.803,9.081C15.078,9.081 15.726,9.756 15.747,11.106L15.747,15L14.754,15L14.754,11.165C14.754,10.75 14.659,10.44 14.469,10.236C14.279,10.028 13.96,9.924 13.513,9.924C13.144,9.924 12.838,10.035 12.594,10.257C12.351,10.476 12.209,10.771 12.17,11.144L12.17,15L11.171,15L11.171,11.192C11.171,10.347 10.757,9.924 9.93,9.924C9.279,9.924 8.833,10.202 8.593,10.757L8.593,15L7.599,15L7.599,9.188L8.539,9.188ZM19.663,15.107C18.875,15.107 18.234,14.85 17.74,14.334C17.246,13.815 16.999,13.122 16.999,12.255L16.999,12.073C16.999,11.496 17.108,10.982 17.326,10.531C17.548,10.077 17.856,9.722 18.25,9.468C18.648,9.21 19.077,9.081 19.539,9.081C20.295,9.081 20.882,9.33 21.301,9.828C21.72,10.325 21.929,11.038 21.929,11.965L21.929,12.379L17.992,12.379C18.007,12.952 18.173,13.416 18.492,13.77C18.814,14.121 19.222,14.296 19.716,14.296C20.067,14.296 20.365,14.225 20.608,14.082C20.852,13.938 21.065,13.749 21.247,13.512L21.854,13.985C21.367,14.733 20.637,15.107 19.663,15.107ZM19.539,9.897C19.138,9.897 18.802,10.044 18.529,10.338C18.257,10.628 18.089,11.036 18.025,11.563L20.936,11.563L20.936,11.487C20.907,10.982 20.771,10.592 20.528,10.316C20.284,10.037 19.955,9.897 19.539,9.897ZM24.019,9.188L24.046,9.833C24.472,9.332 25.046,9.081 25.77,9.081C26.583,9.081 27.136,9.393 27.429,10.016C27.623,9.736 27.873,9.511 28.181,9.339C28.493,9.167 28.86,9.081 29.282,9.081C30.557,9.081 31.205,9.756 31.227,11.106L31.227,15L30.233,15L30.233,11.165C30.233,10.75 30.138,10.44 29.948,10.236C29.759,10.028 29.44,9.924 28.992,9.924C28.624,9.924 28.317,10.035 28.074,10.257C27.83,10.476 27.689,10.771 27.65,11.144L27.65,15L26.651,15L26.651,11.192C26.651,10.347 26.237,9.924 25.41,9.924C24.758,9.924 24.312,10.202 24.072,10.757L24.072,15L23.079,15L23.079,9.188L24.019,9.188ZM37.651,12.159C37.651,13.047 37.446,13.761 37.038,14.302C36.63,14.839 36.082,15.107 35.395,15.107C34.661,15.107 34.093,14.848 33.692,14.329L33.644,15L32.731,15L32.731,6.75L33.724,6.75L33.724,9.828C34.125,9.33 34.679,9.081 35.384,9.081C36.089,9.081 36.643,9.348 37.044,9.881C37.448,10.415 37.651,11.145 37.651,12.073L37.651,12.159ZM36.657,12.046C36.657,11.369 36.526,10.846 36.265,10.477C36.003,10.109 35.627,9.924 35.137,9.924C34.482,9.924 34.011,10.229 33.724,10.837L33.724,13.351C34.029,13.96 34.503,14.264 35.148,14.264C35.624,14.264 35.994,14.08 36.259,13.711C36.524,13.342 36.657,12.787 36.657,12.046ZM41.319,15.107C40.531,15.107 39.89,14.85 39.396,14.334C38.902,13.815 38.655,13.122 38.655,12.255L38.655,12.073C38.655,11.496 38.764,10.982 38.983,10.531C39.205,10.077 39.513,9.722 39.906,9.468C40.304,9.21 40.734,9.081 41.195,9.081C41.951,9.081 42.538,9.33 42.957,9.828C43.376,10.325 43.586,11.038 43.586,11.965L43.586,12.379L39.649,12.379C39.663,12.952 39.829,13.416 40.148,13.77C40.47,14.121 40.879,14.296 41.373,14.296C41.724,14.296 42.021,14.225 42.264,14.082C42.508,13.938 42.721,13.749 42.903,13.512L43.51,13.985C43.023,14.733 42.293,15.107 41.319,15.107ZM41.195,9.897C40.794,9.897 40.458,10.044 40.186,10.338C39.914,10.628 39.745,11.036 39.681,11.563L42.592,11.563L42.592,11.487C42.563,10.982 42.427,10.592 42.184,10.316C41.94,10.037 41.611,9.897 41.195,9.897ZM47.549,10.08C47.399,10.055 47.236,10.043 47.061,10.043C46.409,10.043 45.967,10.32 45.734,10.875L45.734,15L44.74,15L44.74,9.188L45.707,9.188L45.723,9.86C46.049,9.341 46.511,9.081 47.109,9.081C47.302,9.081 47.449,9.106 47.549,9.156L47.549,10.08ZM50.933,12.041C50.933,11.471 51.044,10.959 51.266,10.504C51.492,10.05 51.803,9.699 52.201,9.452C52.602,9.205 53.058,9.081 53.57,9.081C54.362,9.081 55.001,9.355 55.488,9.903C55.978,10.451 56.224,11.179 56.224,12.089L56.224,12.159C56.224,12.724 56.115,13.233 55.896,13.684C55.681,14.132 55.371,14.481 54.967,14.731C54.566,14.982 54.104,15.107 53.581,15.107C52.793,15.107 52.154,14.834 51.664,14.286C51.177,13.738 50.933,13.013 50.933,12.11L50.933,12.041ZM51.932,12.159C51.932,12.803 52.081,13.321 52.378,13.711C52.679,14.101 53.08,14.296 53.581,14.296C54.086,14.296 54.487,14.099 54.784,13.706C55.082,13.308 55.23,12.753 55.23,12.041C55.23,11.403 55.078,10.887 54.774,10.494C54.473,10.096 54.072,9.897 53.57,9.897C53.08,9.897 52.684,10.093 52.383,10.483C52.083,10.873 51.932,11.432 51.932,12.159ZM57.959,15L57.959,9.957L57.04,9.957L57.04,9.188L57.959,9.188L57.959,8.592C57.959,7.969 58.125,7.488 58.458,7.147C58.791,6.807 59.262,6.637 59.871,6.637C60.1,6.637 60.327,6.668 60.553,6.729L60.499,7.534C60.331,7.502 60.152,7.486 59.962,7.486C59.64,7.486 59.391,7.581 59.215,7.771C59.04,7.957 58.952,8.225 58.952,8.576L58.952,9.188L60.193,9.188L60.193,9.957L58.952,9.957L58.952,15L57.959,15Z" style="fill:rgb(1,1,1);fill-opacity:0.3;fill-rule:nonzero;"/>
        <path d="M7.842,8.188L7.869,8.833C8.295,8.332 8.869,8.081 9.593,8.081C10.406,8.081 10.959,8.393 11.252,9.016C11.446,8.736 11.697,8.511 12.004,8.339C12.316,8.167 12.683,8.081 13.105,8.081C14.38,8.081 15.028,8.756 15.05,10.106L15.05,14L14.056,14L14.056,10.165C14.056,9.75 13.961,9.44 13.772,9.236C13.582,9.028 13.263,8.924 12.815,8.924C12.447,8.924 12.141,9.035 11.897,9.257C11.653,9.476 11.512,9.771 11.473,10.144L11.473,14L10.474,14L10.474,10.192C10.474,9.347 10.06,8.924 9.233,8.924C8.581,8.924 8.135,9.202 7.896,9.757L7.896,14L6.902,14L6.902,8.188L7.842,8.188ZM18.965,14.107C18.178,14.107 17.537,13.85 17.043,13.334C16.548,12.815 16.301,12.122 16.301,11.255L16.301,11.073C16.301,10.496 16.411,9.982 16.629,9.531C16.851,9.077 17.159,8.722 17.553,8.468C17.95,8.21 18.38,8.081 18.842,8.081C19.597,8.081 20.185,8.33 20.604,8.828C21.023,9.325 21.232,10.038 21.232,10.965L21.232,11.379L17.295,11.379C17.309,11.952 17.476,12.416 17.794,12.77C18.117,13.121 18.525,13.296 19.019,13.296C19.37,13.296 19.667,13.225 19.911,13.082C20.154,12.938 20.367,12.749 20.55,12.512L21.157,12.985C20.67,13.733 19.939,14.107 18.965,14.107ZM18.842,8.897C18.441,8.897 18.104,9.044 17.832,9.338C17.56,9.628 17.392,10.036 17.327,10.563L20.238,10.563L20.238,10.487C20.21,9.982 20.074,9.592 19.83,9.316C19.587,9.037 19.257,8.897 18.842,8.897ZM23.321,8.188L23.348,8.833C23.774,8.332 24.349,8.081 25.072,8.081C25.885,8.081 26.438,8.393 26.732,9.016C26.925,8.736 27.176,8.511 27.484,8.339C27.795,8.167 28.162,8.081 28.585,8.081C29.86,8.081 30.508,8.756 30.529,10.106L30.529,14L29.536,14L29.536,10.165C29.536,9.75 29.441,9.44 29.251,9.236C29.061,9.028 28.743,8.924 28.295,8.924C27.926,8.924 27.62,9.035 27.377,9.257C27.133,9.476 26.991,9.771 26.952,10.144L26.952,14L25.953,14L25.953,10.192C25.953,9.347 25.54,8.924 24.712,8.924C24.061,8.924 23.615,9.202 23.375,9.757L23.375,14L22.381,14L22.381,8.188L23.321,8.188ZM36.953,11.159C36.953,12.047 36.749,12.761 36.341,13.302C35.933,13.839 35.385,14.107 34.697,14.107C33.963,14.107 33.396,13.848 32.995,13.329L32.946,14L32.033,14L32.033,5.75L33.027,5.75L33.027,8.828C33.428,8.33 33.981,8.081 34.687,8.081C35.392,8.081 35.945,8.348 36.346,8.881C36.751,9.415 36.953,10.145 36.953,11.073L36.953,11.159ZM35.96,11.046C35.96,10.369 35.829,9.846 35.567,9.478C35.306,9.109 34.93,8.924 34.44,8.924C33.784,8.924 33.313,9.229 33.027,9.837L33.027,12.351C33.331,12.96 33.806,13.264 34.45,13.264C34.926,13.264 35.297,13.08 35.562,12.711C35.827,12.342 35.96,11.787 35.96,11.046ZM40.622,14.107C39.834,14.107 39.193,13.85 38.699,13.334C38.205,12.815 37.958,12.122 37.958,11.255L37.958,11.073C37.958,10.496 38.067,9.982 38.285,9.531C38.507,9.077 38.815,8.722 39.209,8.468C39.606,8.21 40.036,8.081 40.498,8.081C41.254,8.081 41.841,8.33 42.26,8.828C42.679,9.325 42.888,10.038 42.888,10.965L42.888,11.379L38.951,11.379C38.966,11.952 39.132,12.416 39.451,12.77C39.773,13.121 40.181,13.296 40.675,13.296C41.026,13.296 41.323,13.225 41.567,13.082C41.81,12.938 42.023,12.749 42.206,12.512L42.813,12.985C42.326,13.733 41.596,14.107 40.622,14.107ZM40.498,8.897C40.097,8.897 39.76,9.044 39.488,9.338C39.216,9.628 39.048,10.036 38.983,10.563L41.895,10.563L41.895,10.487C41.866,9.982 41.73,9.592 41.486,9.316C41.243,9.037 40.913,8.897 40.498,8.897ZM46.852,9.08C46.702,9.055 46.539,9.042 46.363,9.042C45.712,9.042 45.269,9.32 45.037,9.875L45.037,14L44.043,14L44.043,8.188L45.01,8.188L45.026,8.86C45.352,8.341 45.814,8.081 46.412,8.081C46.605,8.081 46.752,8.106 46.852,8.156L46.852,9.08ZM50.236,11.041C50.236,10.471 50.347,9.959 50.569,9.504C50.794,9.05 51.106,8.699 51.503,8.452C51.905,8.205 52.361,8.081 52.873,8.081C53.664,8.081 54.304,8.355 54.791,8.903C55.281,9.451 55.526,10.179 55.526,11.089L55.526,11.159C55.526,11.724 55.417,12.233 55.199,12.684C54.984,13.132 54.674,13.481 54.27,13.731C53.868,13.982 53.407,14.107 52.884,14.107C52.096,14.107 51.457,13.834 50.966,13.286C50.479,12.738 50.236,12.013 50.236,11.11L50.236,11.041ZM51.235,11.159C51.235,11.803 51.384,12.321 51.681,12.711C51.981,13.101 52.383,13.296 52.884,13.296C53.389,13.296 53.79,13.099 54.087,12.706C54.384,12.308 54.533,11.753 54.533,11.041C54.533,10.403 54.381,9.888 54.076,9.494C53.775,9.096 53.374,8.897 52.873,8.897C52.383,8.897 51.987,9.093 51.686,9.483C51.385,9.873 51.235,10.432 51.235,11.159ZM57.261,14L57.261,8.957L56.343,8.957L56.343,8.188L57.261,8.188L57.261,7.592C57.261,6.969 57.428,6.488 57.761,6.147C58.094,5.807 58.565,5.637 59.173,5.637C59.403,5.637 59.63,5.668 59.856,5.729L59.802,6.534C59.634,6.502 59.454,6.486 59.265,6.486C58.942,6.486 58.694,6.581 58.518,6.771C58.343,6.957 58.255,7.225 58.255,7.576L58.255,8.188L59.496,8.188L59.496,8.957L58.255,8.957L58.255,14L57.261,14Z" style="fill:white;fill-rule:nonzero;"/>
        <g transform="matrix(0.0187209,0,0,0.0187209,71.0123,0.573113)">
            <path d="M518.264,702.845L513.918,704.372C507.456,706.369 497.705,713.183 493.593,718.235C491.713,720.702 488.659,725.519 486.897,729.043C483.96,734.8 483.607,736.562 483.607,747.841C483.607,759.706 483.725,760.529 487.954,768.987C490.304,773.804 491.948,778.033 491.478,778.386C489.364,780.266 371.295,826.553 365.773,827.728C361.896,828.551 349.795,828.903 333.465,828.551L307.384,828.198L244.884,803.057L182.266,778.033L184.616,775.096C185.791,773.569 188.023,769.222 189.315,765.58C198.479,741.262 187.435,715.063 164.056,705.312L157.595,702.61L157.595,577.609L224.912,604.513C279.306,626.247 294.109,631.651 302.568,633.178C316.783,635.645 359.076,635.645 373.057,633.178C381.046,631.768 396.201,626.129 445.191,606.627C479.26,592.999 509.571,580.781 512.743,579.607L518.264,577.374L518.264,702.845ZM542.936,717.413C558.796,724.227 566.784,743.024 560.91,760.176C558.208,768.165 548.927,777.211 540.703,780.031C524.608,785.317 506.751,778.503 499.467,764.053C495.238,755.947 494.416,748.78 496.53,740.557C501.817,719.41 523.081,708.837 542.936,717.413ZM113.187,781.793L89.808,781.793C59.498,781.793 54.798,780.266 48.924,768.4L45.987,762.526L45.987,611.562C45.987,467.059 46.105,460.245 48.219,455.781C51.274,449.202 56.678,444.502 63.257,442.74C67.839,441.565 121.293,441.33 340.279,441.448L611.662,441.683L616.362,444.15C621.766,447.087 623.998,449.437 627.053,455.193C629.167,459.188 629.285,465.414 629.637,607.92C629.872,716.473 629.637,758.179 628.697,762.761C627.053,770.162 622.001,776.506 615.187,779.561C611.193,781.44 607.198,781.793 586.756,781.793C573.598,781.793 562.907,781.44 562.907,781.088C562.907,780.736 564.552,778.503 566.432,776.036C580.177,759.001 577.945,730.688 561.615,714.828L557.033,710.364L557.033,552.938L553.744,546.712C548.927,537.548 542.701,533.554 532.362,532.966L524.256,532.496L446.953,563.394L369.65,594.409L305.035,594.409L228.319,563.511C158.77,535.551 151.133,532.731 144.907,532.731C136.683,532.731 129.869,535.668 125.405,541.072C118.591,549.061 118.826,546.124 118.826,631.416L118.826,710.129L115.301,713.301C97.444,729.161 95.095,758.061 110.132,777.681L113.187,781.793ZM678.862,286.842C686.498,291.893 816.081,446.5 821.133,456.838C827.594,469.761 829.944,481.627 829.239,496.782C828.652,509.587 828.299,511.232 799.986,606.98L771.203,704.137L938.262,704.842L942.961,708.014C945.546,709.776 948.953,713.183 950.598,715.651C953.417,719.762 953.535,720.82 953.887,741.144C954.24,758.414 953.887,763.113 952.36,767.225C950.01,773.334 944.019,778.856 938.027,780.618C934.855,781.558 894.324,781.793 801.278,781.558L668.994,781.205L664.177,777.798C661.122,775.684 658.185,772.277 656.306,768.517C653.486,762.878 653.369,761.468 653.369,744.316C653.369,723.522 654.308,718.823 659.595,712.831C665.939,705.547 670.403,704.255 689.435,704.255C704.238,704.255 706.118,704.02 706.705,702.14C772.848,477.397 769.441,490.79 763.684,482.919C758.985,476.692 698.952,405.733 698.599,406.086C698.364,406.321 696.014,413.84 693.312,422.886C687.321,442.858 684.736,446.382 679.215,441.918C677.335,440.508 569.486,312.218 564.435,305.521C561.263,301.409 561.028,297.532 563.612,295.3C566.079,293.303 659.478,282.377 667.936,283.082C671.696,283.435 675.573,284.844 678.862,286.842ZM159.945,717.413C171.34,722.23 178.742,732.803 179.682,745.491C180.621,759.354 174.512,770.867 162.529,778.033C157.595,780.853 155.833,781.205 146.434,781.205C137.858,781.205 134.921,780.736 131.162,778.621C114.949,769.927 108.135,750.778 115.419,734.8C123.525,717.178 142.322,709.776 159.945,717.413ZM408.654,175.116C414.175,178.288 418.405,185.69 418.405,192.034C418.405,197.203 414.293,205.544 410.416,208.364C408.654,209.539 405.247,211.183 402.897,211.888C398.668,213.298 398.55,213.415 388.564,238.557C383.043,252.419 378.461,263.933 378.461,264.285C378.461,264.52 390.797,264.873 405.834,265.107L433.325,265.46L438.259,268.749C441.549,270.982 444.016,273.919 445.543,277.208C447.775,282.142 447.775,285.314 447.54,352.279L447.188,422.063L443.663,426.528C436.027,435.809 443.428,435.221 338.282,435.221C275.077,435.221 243.592,434.869 241.36,433.929C237.248,432.402 232.078,427.585 229.494,422.886C227.732,419.714 227.497,412.312 227.144,353.571C226.792,283.435 227.027,280.498 232.431,273.214C238.07,265.812 242.182,264.873 268.968,264.873C282.008,264.873 292.699,264.638 292.699,264.285C292.699,263.933 290.115,259.703 286.943,255.004C281.303,246.663 280.951,246.428 275.664,245.84C265.796,244.666 257.455,235.385 257.455,225.399C257.455,210.831 273.315,200.61 286.355,206.836C295.754,211.301 300.688,222.697 297.163,231.743L295.519,236.089L304.917,250.422L314.433,264.755L336.872,264.873L359.194,264.873L370.707,235.972L382.338,207.071L379.753,202.137C373.527,189.449 379.048,177.349 393.734,171.709C396.671,170.535 403.485,172.062 408.654,175.116ZM712.227,262.993C713.872,264.168 735.488,289.426 742.42,298.237C746.297,303.289 745.944,309.516 741.362,314.802C734.666,322.321 727.5,324.436 721.273,320.324C717.044,317.622 691.08,286.372 689.083,281.672C686.616,276.033 688.143,271.334 694.135,266.047C700.596,260.408 706.823,259.351 712.227,262.993Z" style="fill:rgb(57,57,57);fill-rule:nonzero;"/>
        </g>
        <g transform="matrix(0.0187209,0,0,0.0187209,70.7403,-0.109208)">
            <path d="M518.264,702.845L513.918,704.372C507.456,706.369 497.705,713.183 493.593,718.235C491.713,720.702 488.659,725.519 486.897,729.043C483.96,734.8 483.607,736.562 483.607,747.841C483.607,759.706 483.725,760.529 487.954,768.987C490.304,773.804 491.948,778.033 491.478,778.386C489.364,780.266 371.295,826.553 365.773,827.728C361.896,828.551 349.795,828.903 333.465,828.551L307.384,828.198L244.884,803.057L182.266,778.033L184.616,775.096C185.791,773.569 188.023,769.222 189.315,765.58C198.479,741.262 187.435,715.063 164.056,705.312L157.595,702.61L157.595,577.609L224.912,604.513C279.306,626.247 294.109,631.651 302.568,633.178C316.783,635.645 359.076,635.645 373.057,633.178C381.046,631.768 396.201,626.129 445.191,606.627C479.26,592.999 509.571,580.781 512.743,579.607L518.264,577.374L518.264,702.845ZM542.936,717.413C558.796,724.227 566.784,743.024 560.91,760.176C558.208,768.165 548.927,777.211 540.703,780.031C524.608,785.317 506.751,778.503 499.467,764.053C495.238,755.947 494.416,748.78 496.53,740.557C501.817,719.41 523.081,708.837 542.936,717.413ZM113.187,781.793L89.808,781.793C59.498,781.793 54.798,780.266 48.924,768.4L45.987,762.526L45.987,611.562C45.987,467.059 46.105,460.245 48.219,455.781C51.274,449.202 56.678,444.502 63.257,442.74C67.839,441.565 121.293,441.33 340.279,441.448L611.662,441.683L616.362,444.15C621.766,447.087 623.998,449.437 627.053,455.193C629.167,459.188 629.285,465.414 629.637,607.92C629.872,716.473 629.637,758.179 628.697,762.761C627.053,770.162 622.001,776.506 615.187,779.561C611.193,781.44 607.198,781.793 586.756,781.793C573.598,781.793 562.907,781.44 562.907,781.088C562.907,780.736 564.552,778.503 566.432,776.036C580.177,759.001 577.945,730.688 561.615,714.828L557.033,710.364L557.033,552.938L553.744,546.712C548.927,537.548 542.701,533.554 532.362,532.966L524.256,532.496L446.953,563.394L369.65,594.409L305.035,594.409L228.319,563.511C158.77,535.551 151.133,532.731 144.907,532.731C136.683,532.731 129.869,535.668 125.405,541.072C118.591,549.061 118.826,546.124 118.826,631.416L118.826,710.129L115.301,713.301C97.444,729.161 95.095,758.061 110.132,777.681L113.187,781.793ZM678.862,286.842C686.498,291.893 816.081,446.5 821.133,456.838C827.594,469.761 829.944,481.627 829.239,496.782C828.652,509.587 828.299,511.232 799.986,606.98L771.203,704.137L938.262,704.842L942.961,708.014C945.546,709.776 948.953,713.183 950.598,715.651C953.417,719.762 953.535,720.82 953.887,741.144C954.24,758.414 953.887,763.113 952.36,767.225C950.01,773.334 944.019,778.856 938.027,780.618C934.855,781.558 894.324,781.793 801.278,781.558L668.994,781.205L664.177,777.798C661.122,775.684 658.185,772.277 656.306,768.517C653.486,762.878 653.369,761.468 653.369,744.316C653.369,723.522 654.308,718.823 659.595,712.831C665.939,705.547 670.403,704.255 689.435,704.255C704.238,704.255 706.118,704.02 706.705,702.14C772.848,477.397 769.441,490.79 763.684,482.919C758.985,476.692 698.952,405.733 698.599,406.086C698.364,406.321 696.014,413.84 693.312,422.886C687.321,442.858 684.736,446.382 679.215,441.918C677.335,440.508 569.486,312.218 564.435,305.521C561.263,301.409 561.028,297.532 563.612,295.3C566.079,293.303 659.478,282.377 667.936,283.082C671.696,283.435 675.573,284.844 678.862,286.842ZM159.945,717.413C171.34,722.23 178.742,732.803 179.682,745.491C180.621,759.354 174.512,770.867 162.529,778.033C157.595,780.853 155.833,781.205 146.434,781.205C137.858,781.205 134.921,780.736 131.162,778.621C114.949,769.927 108.135,750.778 115.419,734.8C123.525,717.178 142.322,709.776 159.945,717.413ZM408.654,175.116C414.175,178.288 418.405,185.69 418.405,192.034C418.405,197.203 414.293,205.544 410.416,208.364C408.654,209.539 405.247,211.183 402.897,211.888C398.668,213.298 398.55,213.415 388.564,238.557C383.043,252.419 378.461,263.933 378.461,264.285C378.461,264.52 390.797,264.873 405.834,265.107L433.325,265.46L438.259,268.749C441.549,270.982 444.016,273.919 445.543,277.208C447.775,282.142 447.775,285.314 447.54,352.279L447.188,422.063L443.663,426.528C436.027,435.809 443.428,435.221 338.282,435.221C275.077,435.221 243.592,434.869 241.36,433.929C237.248,432.402 232.078,427.585 229.494,422.886C227.732,419.714 227.497,412.312 227.144,353.571C226.792,283.435 227.027,280.498 232.431,273.214C238.07,265.812 242.182,264.873 268.968,264.873C282.008,264.873 292.699,264.638 292.699,264.285C292.699,263.933 290.115,259.703 286.943,255.004C281.303,246.663 280.951,246.428 275.664,245.84C265.796,244.666 257.455,235.385 257.455,225.399C257.455,210.831 273.315,200.61 286.355,206.836C295.754,211.301 300.688,222.697 297.163,231.743L295.519,236.089L304.917,250.422L314.433,264.755L336.872,264.873L359.194,264.873L370.707,235.972L382.338,207.071L379.753,202.137C373.527,189.449 379.048,177.349 393.734,171.709C396.671,170.535 403.485,172.062 408.654,175.116ZM712.227,262.993C713.872,264.168 735.488,289.426 742.42,298.237C746.297,303.289 745.944,309.516 741.362,314.802C734.666,322.321 727.5,324.436 721.273,320.324C717.044,317.622 691.08,286.372 689.083,281.672C686.616,276.033 688.143,271.334 694.135,266.047C700.596,260.408 706.823,259.351 712.227,262.993Z" style="fill:white;fill-rule:nonzero;"/>
        </g>
        <g transform="matrix(1,0,0,1,-7.0763,0.240085)">
            <path d="M146.24,11.811L147.225,8.525L148.384,8.525L146.459,14.102C146.164,14.917 145.663,15.324 144.955,15.324C144.797,15.324 144.623,15.298 144.432,15.244L144.432,14.402L144.638,14.416C144.912,14.416 145.119,14.366 145.258,14.266C145.396,14.166 145.506,13.998 145.587,13.762L145.743,13.346L144.042,8.525L145.215,8.525L146.24,11.811ZM106.887,11.247C106.821,11.942 106.565,12.484 106.117,12.874C105.67,13.263 105.074,13.458 104.331,13.458C103.812,13.458 103.355,13.335 102.959,13.089C102.564,12.842 102.259,12.493 102.044,12.039C101.829,11.585 101.717,11.059 101.708,10.459L101.708,9.85C101.708,9.236 101.817,8.694 102.035,8.226C102.253,7.757 102.566,7.396 102.973,7.142C103.38,6.889 103.851,6.762 104.385,6.762C105.104,6.762 105.683,6.957 106.122,7.348C106.56,7.739 106.815,8.291 106.887,9.004L105.759,9.004C105.705,8.536 105.569,8.198 105.35,7.991C105.13,7.783 104.809,7.679 104.385,7.679C103.893,7.679 103.514,7.859 103.25,8.219C102.986,8.578 102.851,9.106 102.845,9.801L102.845,10.378C102.845,11.083 102.971,11.62 103.224,11.99C103.476,12.36 103.845,12.545 104.331,12.545C104.776,12.545 105.11,12.445 105.334,12.245C105.558,12.045 105.699,11.712 105.759,11.247L106.887,11.247ZM142.861,7.348L142.861,8.525L143.716,8.525L143.716,9.331L142.861,9.331L142.861,12.035C142.861,12.22 142.897,12.353 142.97,12.435C143.043,12.517 143.174,12.558 143.362,12.558C143.487,12.558 143.614,12.543 143.742,12.514L143.742,13.355C143.495,13.424 143.256,13.458 143.026,13.458C142.191,13.458 141.773,12.997 141.773,12.075L141.773,9.331L140.976,9.331L140.976,8.525L141.773,8.525L141.773,7.348L142.861,7.348ZM131.899,12.894C131.58,13.27 131.126,13.458 130.538,13.458C130.013,13.458 129.615,13.304 129.345,12.997C129.075,12.69 128.94,12.245 128.94,11.663L128.94,8.525L130.028,8.525L130.028,11.65C130.028,12.264 130.283,12.572 130.793,12.572C131.322,12.572 131.678,12.382 131.863,12.003L131.863,8.525L132.951,8.525L132.951,13.368L131.926,13.368L131.899,12.894ZM107.59,10.902C107.59,10.428 107.684,10 107.872,9.62C108.06,9.239 108.324,8.947 108.664,8.742C109.004,8.538 109.395,8.436 109.837,8.436C110.49,8.436 111.021,8.646 111.428,9.067C111.835,9.488 112.055,10.046 112.088,10.741L112.093,10.996C112.093,11.474 112.001,11.9 111.817,12.276C111.634,12.652 111.371,12.943 111.03,13.149C110.688,13.355 110.293,13.458 109.846,13.458C109.162,13.458 108.616,13.23 108.205,12.775C107.795,12.32 107.59,11.714 107.59,10.956L107.59,10.902ZM140.314,13.368L139.226,13.368L139.226,8.525L140.314,8.525L140.314,13.368ZM135.068,8.525L135.099,9.085C135.457,8.652 135.927,8.436 136.509,8.436C137.518,8.436 138.031,9.013 138.049,10.168L138.049,13.368L136.961,13.368L136.961,10.231C136.961,9.923 136.895,9.696 136.762,9.548C136.629,9.4 136.412,9.327 136.111,9.327C135.672,9.327 135.346,9.525 135.131,9.922L135.131,13.368L134.043,13.368L134.043,8.525L135.068,8.525ZM114.035,8.525L114.067,9.031C114.407,8.634 114.872,8.436 115.463,8.436C116.111,8.436 116.554,8.684 116.792,9.179C117.145,8.684 117.64,8.436 118.279,8.436C118.813,8.436 119.21,8.584 119.471,8.879C119.732,9.174 119.866,9.61 119.872,10.186L119.872,13.368L118.784,13.368L118.784,10.217C118.784,9.91 118.717,9.685 118.583,9.541C118.449,9.398 118.226,9.327 117.916,9.327C117.668,9.327 117.466,9.393 117.309,9.526C117.153,9.659 117.043,9.832 116.98,10.047L116.985,13.368L115.897,13.368L115.897,10.182C115.882,9.612 115.591,9.327 115.024,9.327C114.589,9.327 114.28,9.504 114.098,9.859L114.098,13.368L113.01,13.368L113.01,8.525L114.035,8.525ZM122.012,8.525L122.043,9.031C122.383,8.634 122.849,8.436 123.439,8.436C124.087,8.436 124.53,8.684 124.769,9.179C125.121,8.684 125.616,8.436 126.255,8.436C126.789,8.436 127.187,8.584 127.448,8.879C127.709,9.174 127.842,9.61 127.848,10.186L127.848,13.368L126.761,13.368L126.761,10.217C126.761,9.91 126.693,9.685 126.559,9.541C126.425,9.398 126.203,9.327 125.892,9.327C125.645,9.327 125.442,9.393 125.286,9.526C125.129,9.659 125.019,9.832 124.957,10.047L124.961,13.368L123.874,13.368L123.874,10.182C123.859,9.612 123.568,9.327 123.001,9.327C122.565,9.327 122.256,9.504 122.074,9.859L122.074,13.368L120.987,13.368L120.987,8.525L122.012,8.525ZM108.678,10.996C108.678,11.494 108.78,11.885 108.986,12.167C109.192,12.449 109.479,12.59 109.846,12.59C110.213,12.59 110.498,12.446 110.703,12.16C110.907,11.873 111.01,11.454 111.01,10.902C111.01,10.413 110.904,10.025 110.694,9.738C110.484,9.452 110.198,9.309 109.837,9.309C109.482,9.309 109.2,9.45 108.991,9.732C108.782,10.014 108.678,10.435 108.678,10.996ZM139.159,7.268C139.159,7.101 139.212,6.962 139.318,6.851C139.424,6.741 139.575,6.686 139.772,6.686C139.969,6.686 140.121,6.741 140.229,6.851C140.336,6.962 140.39,7.101 140.39,7.268C140.39,7.432 140.336,7.568 140.229,7.677C140.121,7.786 139.969,7.841 139.772,7.841C139.575,7.841 139.424,7.786 139.318,7.677C139.212,7.568 139.159,7.432 139.159,7.268Z" style="fill:rgb(58,58,58);fill-rule:nonzero;"/>
        </g>
        <g transform="matrix(1,0,0,1,-7.59591,-0.518599)">
            <path d="M146.24,11.811L147.225,8.525L148.384,8.525L146.459,14.102C146.164,14.917 145.663,15.324 144.955,15.324C144.797,15.324 144.623,15.298 144.432,15.244L144.432,14.402L144.638,14.416C144.912,14.416 145.119,14.366 145.258,14.266C145.396,14.166 145.506,13.998 145.587,13.762L145.743,13.346L144.042,8.525L145.215,8.525L146.24,11.811ZM106.887,11.247C106.821,11.942 106.565,12.484 106.117,12.874C105.67,13.263 105.074,13.458 104.331,13.458C103.812,13.458 103.355,13.335 102.959,13.089C102.564,12.842 102.259,12.493 102.044,12.039C101.829,11.585 101.717,11.059 101.708,10.459L101.708,9.85C101.708,9.236 101.817,8.694 102.035,8.226C102.253,7.757 102.566,7.396 102.973,7.142C103.38,6.889 103.851,6.762 104.385,6.762C105.104,6.762 105.683,6.957 106.122,7.348C106.56,7.739 106.815,8.291 106.887,9.004L105.759,9.004C105.705,8.536 105.569,8.198 105.35,7.991C105.13,7.783 104.809,7.679 104.385,7.679C103.893,7.679 103.514,7.859 103.25,8.219C102.986,8.578 102.851,9.106 102.845,9.801L102.845,10.378C102.845,11.083 102.971,11.62 103.224,11.99C103.476,12.36 103.845,12.545 104.331,12.545C104.776,12.545 105.11,12.445 105.334,12.245C105.558,12.045 105.699,11.712 105.759,11.247L106.887,11.247ZM142.861,7.348L142.861,8.525L143.716,8.525L143.716,9.331L142.861,9.331L142.861,12.035C142.861,12.22 142.897,12.353 142.97,12.435C143.043,12.517 143.174,12.558 143.362,12.558C143.487,12.558 143.614,12.543 143.742,12.514L143.742,13.355C143.495,13.424 143.256,13.458 143.026,13.458C142.191,13.458 141.773,12.997 141.773,12.075L141.773,9.331L140.976,9.331L140.976,8.525L141.773,8.525L141.773,7.348L142.861,7.348ZM131.899,12.894C131.58,13.27 131.126,13.458 130.538,13.458C130.013,13.458 129.615,13.304 129.345,12.997C129.075,12.69 128.94,12.245 128.94,11.663L128.94,8.525L130.028,8.525L130.028,11.65C130.028,12.264 130.283,12.572 130.793,12.572C131.322,12.572 131.678,12.382 131.863,12.003L131.863,8.525L132.951,8.525L132.951,13.368L131.926,13.368L131.899,12.894ZM107.59,10.902C107.59,10.428 107.684,10 107.872,9.62C108.06,9.239 108.324,8.947 108.664,8.742C109.004,8.538 109.395,8.436 109.837,8.436C110.49,8.436 111.021,8.646 111.428,9.067C111.835,9.488 112.055,10.046 112.088,10.741L112.093,10.996C112.093,11.474 112.001,11.9 111.817,12.276C111.634,12.652 111.371,12.943 111.03,13.149C110.688,13.355 110.293,13.458 109.846,13.458C109.162,13.458 108.616,13.23 108.205,12.775C107.795,12.32 107.59,11.714 107.59,10.956L107.59,10.902ZM140.314,13.368L139.226,13.368L139.226,8.525L140.314,8.525L140.314,13.368ZM135.068,8.525L135.099,9.085C135.457,8.652 135.927,8.436 136.509,8.436C137.518,8.436 138.031,9.013 138.049,10.168L138.049,13.368L136.961,13.368L136.961,10.231C136.961,9.923 136.895,9.696 136.762,9.548C136.629,9.4 136.412,9.327 136.111,9.327C135.672,9.327 135.346,9.525 135.131,9.922L135.131,13.368L134.043,13.368L134.043,8.525L135.068,8.525ZM114.035,8.525L114.067,9.031C114.407,8.634 114.872,8.436 115.463,8.436C116.111,8.436 116.554,8.684 116.792,9.179C117.145,8.684 117.64,8.436 118.279,8.436C118.813,8.436 119.21,8.584 119.471,8.879C119.732,9.174 119.866,9.61 119.872,10.186L119.872,13.368L118.784,13.368L118.784,10.217C118.784,9.91 118.717,9.685 118.583,9.541C118.449,9.398 118.226,9.327 117.916,9.327C117.668,9.327 117.466,9.393 117.309,9.526C117.153,9.659 117.043,9.832 116.98,10.047L116.985,13.368L115.897,13.368L115.897,10.182C115.882,9.612 115.591,9.327 115.024,9.327C114.589,9.327 114.28,9.504 114.098,9.859L114.098,13.368L113.01,13.368L113.01,8.525L114.035,8.525ZM122.012,8.525L122.043,9.031C122.383,8.634 122.849,8.436 123.439,8.436C124.087,8.436 124.53,8.684 124.769,9.179C125.121,8.684 125.616,8.436 126.255,8.436C126.789,8.436 127.187,8.584 127.448,8.879C127.709,9.174 127.842,9.61 127.848,10.186L127.848,13.368L126.761,13.368L126.761,10.217C126.761,9.91 126.693,9.685 126.559,9.541C126.425,9.398 126.203,9.327 125.892,9.327C125.645,9.327 125.442,9.393 125.286,9.526C125.129,9.659 125.019,9.832 124.957,10.047L124.961,13.368L123.874,13.368L123.874,10.182C123.859,9.612 123.568,9.327 123.001,9.327C122.565,9.327 122.256,9.504 122.074,9.859L122.074,13.368L120.987,13.368L120.987,8.525L122.012,8.525ZM108.678,10.996C108.678,11.494 108.78,11.885 108.986,12.167C109.192,12.449 109.479,12.59 109.846,12.59C110.213,12.59 110.498,12.446 110.703,12.16C110.907,11.873 111.01,11.454 111.01,10.902C111.01,10.413 110.904,10.025 110.694,9.738C110.484,9.452 110.198,9.309 109.837,9.309C109.482,9.309 109.2,9.45 108.991,9.732C108.782,10.014 108.678,10.435 108.678,10.996ZM139.159,7.268C139.159,7.101 139.212,6.962 139.318,6.851C139.424,6.741 139.575,6.686 139.772,6.686C139.969,6.686 140.121,6.741 140.229,6.851C140.336,6.962 140.39,7.101 140.39,7.268C140.39,7.432 140.336,7.568 140.229,7.677C140.121,7.786 139.969,7.841 139.772,7.841C139.575,7.841 139.424,7.786 139.318,7.677C139.212,7.568 139.159,7.432 139.159,7.268Z" style="fill:white;fill-rule:nonzero;"/>
        </g>
    </g>
    <defs>
        <linearGradient id="_Linear1" x1="0" y1="0" x2="1" y2="0" gradientUnits="userSpaceOnUse" gradientTransform="matrix(1.22465e-15,20,-20,1.22465e-15,55,0)"><stop offset="0" style="stop-color:rgb(187,187,187);stop-opacity:0.1"/><stop offset="1" style="stop-color:black;stop-opacity:0.1"/></linearGradient>
    </defs>
</svg>
